<svg xmlns="http://www.w3.org/2000/svg" viewBox="0 0 1200 762"><path fill="#6d2380" d="M0 0h1200v762H0Z"/><path fill="#2c58a4" d="M0 0h1200v635H0Z"/><path fill="#78b82a" d="M0 0h1200v508H0Z"/><path fill="#efe524" d="M0 0h1200v381H0Z"/><path fill="#f28917" d="M0 0h1200v254H0Z"/><path fill="#e22016" d="M0 0h1200v127H0Z"/><path d="M315 0H0v762h315l353-381Z"/><path fill="#945516" d="M241 0H0v762h241l353-381Z"/><path fill="#7bcce5" d="M168 0H0v762h168l353-381Z"/><path fill="#f4aec8" d="M95 0H0v762h95l353-381Z"/><path fill="#fff" d="M0 0v762h22l352-381L22 0Z"/><path fill="#fdd817" d="m0 706 301-325L0 55Z"/><circle cx="111" cy="381" r="80" fill="none" stroke="#66338b" stroke-width="19"/></svg>